<svg width="24" height="25" viewBox="0 0 24 25" fill="none" xmlns="http://www.w3.org/2000/svg">
<path d="M20.2718 16.7299C19.6608 18.2423 18.689 19.5823 17.4412 20.633C16.1935 21.6837 14.7076 22.4133 13.1132 22.758C11.5189 23.1027 9.86436 23.0522 8.29399 22.6107C6.72363 22.1693 5.28509 21.3505 4.1038 20.2255C2.92252 19.1006 2.03436 17.7038 1.51676 16.1569C0.999169 14.6099 0.867857 12.9599 1.13428 11.3506C1.4007 9.74124 2.05676 8.22153 3.04527 6.92394C4.03377 5.62635 5.3247 4.59027 6.80548 3.90605" stroke="currentColor" stroke-width="2"/>
<path d="M12 1.98383C13.3132 1.98383 14.6136 2.24248 15.8268 2.74503C17.0401 3.24758 18.1425 3.98417 19.0711 4.91276C19.9997 5.84134 20.7362 6.94374 21.2388 8.15699C21.7413 9.37025 22 10.6706 22 11.9838L12 11.9838L12 1.98383Z" stroke="currentColor" stroke-width="2"/>
</svg>
