<svg width="20" height="20" viewBox="0 0 20 20" fill="none" xmlns="http://www.w3.org/2000/svg">
<g clip-path="url(#clip0_4034_654)">
<path d="M8.18992 8.3938C7.61992 8.3938 7.16992 8.8688 7.16992 9.4483C7.16992 10.0278 7.62992 10.5028 8.18992 10.5028C8.75992 10.5028 9.20992 10.0278 9.20992 9.4483C9.21992 8.8688 8.75992 8.3938 8.18992 8.3938ZM11.8399 8.3938C11.2699 8.3938 10.8199 8.8688 10.8199 9.4483C10.8199 10.0278 11.2799 10.5028 11.8399 10.5028C12.4099 10.5028 12.8599 10.0278 12.8599 9.4483C12.8599 8.8688 12.4099 8.3938 11.8399 8.3938Z" fill="currentColor"/>
<path d="M16.7 0.42334H3.3C2.17 0.42334 1.25 1.29734 1.25 2.38034V15.2243C1.25 16.3073 2.17 17.1813 3.3 17.1813H14.64L14.11 15.4238L15.39 16.5543L16.6 17.6183L18.75 19.4233V2.38034C18.75 1.29734 17.83 0.42334 16.7 0.42334ZM12.84 12.8303C12.84 12.8303 12.48 12.4218 12.18 12.0608C13.49 11.7093 13.99 10.9303 13.99 10.9303C13.58 11.1868 13.19 11.3673 12.84 11.4908C12.34 11.6903 11.86 11.8233 11.39 11.8993C10.5336 12.0491 9.65521 12.0459 8.8 11.8898C8.29792 11.7965 7.80587 11.6598 7.33 11.4813C7.07916 11.3897 6.83525 11.2818 6.6 11.1583C6.57 11.1393 6.54 11.1298 6.51 11.1108C6.49 11.1013 6.48 11.0918 6.47 11.0823C6.29 10.9873 6.19 10.9208 6.19 10.9208C6.19 10.9208 6.67 11.6808 7.94 12.0418C7.64 12.4028 7.27 12.8303 7.27 12.8303C5.06 12.7638 4.22 11.3863 4.22 11.3863C4.22 8.32734 5.66 5.84784 5.66 5.84784C7.1 4.82184 8.47 4.85034 8.47 4.85034L8.57 4.96434C6.77 5.45834 5.94 6.20884 5.94 6.20884C5.94 6.20884 6.16 6.09484 6.53 5.93334C7.6 5.48684 8.45 5.36334 8.8 5.33484C8.86 5.32534 8.91 5.31584 8.97 5.31584C10.7041 5.09286 12.4677 5.40597 14 6.20884C14 6.20884 13.21 5.49634 11.51 5.00234L11.65 4.85034C11.65 4.85034 13.02 4.82184 14.46 5.84784C14.46 5.84784 15.9 8.32734 15.9 11.3863C15.9 11.3863 15.05 12.7638 12.84 12.8303Z" fill="currentColor"/>
</g>
<defs>
<clipPath id="clip0_4034_654">
<rect width="20" height="19" fill="white" transform="translate(0 0.42334)"/>
</clipPath>
</defs>
</svg>
