<svg width="21" height="20" viewBox="0 0 21 20" fill="none" xmlns="http://www.w3.org/2000/svg">
<path d="M5.73291 2.5L19.0662 15.8333" stroke="#FCFCFC" stroke-width="2"/>
<path fill-rule="evenodd" clip-rule="evenodd" d="M18.4867 9.91488C17.1543 7.59419 15.2766 5.93408 13.1741 5.20902L13.8262 3.3183C16.4731 4.23111 18.6984 6.26671 20.2212 8.91906C20.6395 9.64765 20.7391 10.5034 20.5204 11.2924L18.5931 10.7581C18.6709 10.4776 18.6353 10.1736 18.4867 9.91488ZM7.89634 5.35772C5.9549 6.14632 4.22757 7.74176 2.97986 9.91495C2.78471 10.2549 2.78471 10.6725 2.97987 11.0125C4.81067 14.2012 7.65292 16.1304 10.7333 16.1304C12.9208 16.1304 14.974 15.1642 16.6435 13.4657L18.0698 14.8676C16.0895 16.8825 13.5435 18.1304 10.7333 18.1304C6.75369 18.1304 3.33128 15.6413 1.24541 12.0083C0.696194 11.0517 0.69619 9.87573 1.2454 8.91914C2.67241 6.43365 4.71484 4.49133 7.14368 3.50475L7.89634 5.35772Z" fill="#FCFCFC"/>
<path d="M13.1575 9.85428C13.2898 10.3808 13.2472 10.9361 13.036 11.4362C12.8248 11.9364 12.4565 12.3541 11.9868 12.6264C11.5172 12.8988 10.9716 13.0108 10.4327 12.9456C9.8937 12.8804 9.3906 12.6415 8.99941 12.2651C8.60823 11.8886 8.35021 11.3951 8.26436 10.859C8.17852 10.3229 8.2695 9.77347 8.52357 9.2937C8.77764 8.81392 9.18098 8.42988 9.67264 8.19964C10.1643 7.96939 10.7175 7.90544 11.2488 8.01746" stroke="#FCFCFC" stroke-width="2"/>
</svg>
