<svg width="20" height="19" viewBox="0 0 20 19" fill="none" xmlns="http://www.w3.org/2000/svg">
<path fill-rule="evenodd" clip-rule="evenodd" d="M6.14123 0.25135C7.13935 0.205401 7.45758 0.19519 10.0001 0.19519C12.5426 0.19519 12.8608 0.206252 13.8581 0.25135C14.8553 0.296448 15.5361 0.455567 16.1317 0.686162C16.7554 0.921863 17.3213 1.2903 17.7893 1.76681C18.2658 2.23396 18.6334 2.79896 18.8682 3.42352C19.0997 4.01916 19.2579 4.69988 19.3039 5.69544C19.3498 6.69525 19.36 7.01349 19.36 9.55514C19.36 12.0976 19.349 12.4159 19.3039 13.414C19.2588 14.4095 19.0997 15.0903 18.8682 15.6859C18.6334 16.3106 18.2652 16.8765 17.7893 17.3443C17.3213 17.8208 16.7554 18.1884 16.1317 18.4233C15.5361 18.6547 14.8553 18.813 13.8598 18.8589C12.8608 18.9049 12.5426 18.9151 10.0001 18.9151C7.45758 18.9151 7.13935 18.904 6.14123 18.8589C5.14568 18.8138 4.46495 18.6547 3.86932 18.4233C3.24469 18.1884 2.67875 17.8202 2.21091 17.3443C1.73472 16.8769 1.36623 16.3112 1.13111 15.6868C0.900513 15.0911 0.742245 14.4104 0.696296 13.4148C0.650348 12.415 0.640137 12.0968 0.640137 9.55514C0.640137 7.01264 0.651198 6.6944 0.696296 5.69714C0.741394 4.69988 0.900513 4.01916 1.13111 3.42352C1.36657 2.79903 1.73535 2.23337 2.21176 1.76596C2.67894 1.28988 3.24431 0.921389 3.86847 0.686162C4.4641 0.455567 5.14482 0.297299 6.14038 0.25135H6.14123ZM13.7824 1.93614C12.7953 1.89104 12.4992 1.88168 10.0001 1.88168C7.50098 1.88168 7.20486 1.89104 6.21782 1.93614C5.30479 1.97784 4.80957 2.13015 4.47942 2.25863C4.0429 2.42881 3.73062 2.63048 3.40302 2.95808C3.09248 3.26019 2.85349 3.62798 2.70358 4.03447C2.57509 4.36462 2.42278 4.85985 2.38109 5.77287C2.33599 6.75992 2.32663 7.05603 2.32663 9.55514C2.32663 12.0542 2.33599 12.3504 2.38109 13.3374C2.42278 14.2504 2.57509 14.7457 2.70358 15.0758C2.85334 15.4817 3.09244 15.8501 3.40302 16.1522C3.70509 16.4628 4.07354 16.7019 4.47942 16.8516C4.80957 16.9801 5.30479 17.1324 6.21782 17.1741C7.20486 17.2192 7.50013 17.2286 10.0001 17.2286C12.5 17.2286 12.7953 17.2192 13.7824 17.1741C14.6954 17.1324 15.1906 16.9801 15.5208 16.8516C15.9573 16.6815 16.2696 16.4798 16.5971 16.1522C16.9077 15.8501 17.1468 15.4817 17.2966 15.0758C17.4251 14.7457 17.5774 14.2504 17.6191 13.3374C17.6642 12.3504 17.6735 12.0542 17.6735 9.55514C17.6735 7.05603 17.6642 6.75992 17.6191 5.77287C17.5774 4.85985 17.4251 4.36462 17.2966 4.03447C17.1264 3.59796 16.9247 3.28568 16.5971 2.95808C16.295 2.64756 15.9272 2.40857 15.5208 2.25863C15.1906 2.13015 14.6954 1.97784 13.7824 1.93614ZM8.80457 12.4406C9.47223 12.7185 10.2157 12.756 10.9079 12.5467C11.6002 12.3374 12.1983 11.8942 12.6001 11.2929C13.0019 10.6916 13.1825 9.96942 13.111 9.24975C13.0395 8.53009 12.7204 7.85756 12.2082 7.34704C11.8816 7.0207 11.4868 6.77082 11.0521 6.61539C10.6174 6.45996 10.1536 6.40285 9.69418 6.44816C9.23475 6.49348 8.79108 6.64009 8.39511 6.87745C7.99915 7.11482 7.66073 7.43702 7.40423 7.82087C7.14774 8.20472 6.97954 8.64066 6.91174 9.09732C6.84395 9.55398 6.87825 10.02 7.01217 10.4618C7.14609 10.9036 7.37631 11.3102 7.68624 11.6524C7.99617 11.9945 8.37811 12.2637 8.80457 12.4406ZM6.59817 6.15322C7.04492 5.70648 7.57528 5.3521 8.15898 5.11032C8.74268 4.86855 9.36829 4.7441 10.0001 4.7441C10.6319 4.7441 11.2575 4.86854 11.8412 5.11032C12.4249 5.3521 12.9553 5.70648 13.402 6.15322C13.8487 6.59997 14.2031 7.13033 14.4449 7.71404C14.6867 8.29774 14.8111 8.92335 14.8111 9.55514C14.8111 10.1869 14.6867 10.8125 14.4449 11.3962C14.2031 11.9799 13.8487 12.5103 13.402 12.9571C12.4998 13.8593 11.2761 14.3662 10.0001 14.3662C8.72412 14.3662 7.50041 13.8593 6.59817 12.9571C5.69593 12.0548 5.18905 10.8311 5.18905 9.55514C5.18905 8.27917 5.69593 7.05547 6.59817 6.15322ZM15.8781 5.46059C15.9888 5.35615 16.0775 5.23057 16.1388 5.09127C16.2001 4.95197 16.2328 4.80179 16.235 4.64962C16.2372 4.49744 16.2089 4.34637 16.1517 4.20534C16.0945 4.06431 16.0095 3.9362 15.9019 3.82859C15.7943 3.72097 15.6662 3.63604 15.5252 3.57883C15.3841 3.52161 15.2331 3.49328 15.0809 3.49549C14.9287 3.49771 14.7785 3.53044 14.6392 3.59174C14.4999 3.65304 14.3744 3.74167 14.2699 3.85238C14.0668 4.06768 13.9556 4.35366 13.9599 4.64962C13.9643 4.94557 14.0837 5.22819 14.293 5.43748C14.5023 5.64677 14.7849 5.76626 15.0809 5.77057C15.3768 5.77489 15.6628 5.66369 15.8781 5.46059Z" fill="currentColor"/>
</svg>
