<svg width="22" height="23" viewBox="0 0 22 23" fill="none" xmlns="http://www.w3.org/2000/svg">
<path fill-rule="evenodd" clip-rule="evenodd" d="M15.629 3.28466H15.6147H15.5871H15.5594H15.5316H15.5037H15.4757H15.4477H15.4195H15.3913H15.363H15.3346H15.3062H15.2776H15.249H15.2203H15.1915H15.1626H15.1337H15.1046H15.0756H15.0464H15.0171H14.9878H14.9584H14.929H14.8995H14.8699H14.8402H14.8105H14.7807H14.7508H14.7209H14.6909H14.6608H14.6307H14.6005H14.5703H14.54H14.5096H14.4792H14.4487H14.4181H14.3876H14.3569H14.3262H14.2954H14.2646H14.2338H14.2028H14.1719H14.1409H14.1098H14.0787H14.0475H14.0163H13.9851H13.9538H13.9224H13.8911H13.8596H13.8282H13.7967H13.7651H13.7335H13.7019H13.6702H13.6385H13.6068H13.575H13.5432H13.5114H13.4795H13.4476H13.4157H13.3837H13.3518H13.3197H13.2877H13.2556H13.2235H13.1914H13.1592H13.1271H13.0949H13.0627H13.0304H12.9982H12.9659H12.9336H12.9013H12.869H12.8366H12.8042H12.7719H12.7395H12.7071H12.6747H12.6422H12.6098H12.5774H12.5449H12.5124H12.48H12.4475H12.415H12.3825H12.3501H12.3176H12.2851H12.2526H12.2201H12.1876H12.1551H12.1226H12.0901H12.0576H12.0251H11.9927H11.9602H11.9277H11.8953H11.8628H11.8304H11.798H11.7656H11.7332H11.7008H11.6684H11.636H11.6037H11.5713H11.539H11.5067H11.4744H11.4422H11.4099H11.3777H11.3455H11.3133H11.2812H11.2491H11.217H11.1849H11.1528H11.1208H11.0888H11.0568H11.0249H10.993H10.9611H10.9293H10.8975H10.8657H10.834H10.8023H10.7706H10.739H10.7074H10.6758H10.6443H10.6128H10.5814H10.55H10.5186H10.4873H10.4561H10.4249H10.3937H10.3626H10.3315H10.3005H10.2695H10.2386H10.2077H10.1769H10.1461H10.1154H10.0847H10.0541H10.0236H9.99308H9.96265H9.93227H9.90195H9.8717H9.8415H9.81137H9.78129H9.75128H9.72134H9.69146H9.66165H9.6319H9.60222H9.57261H9.54307H9.5136H9.4842H9.45487H9.42561H9.39643H9.36732H9.33829H9.30933H9.28045H9.25164H9.22292H9.19427H9.1657H9.13721H9.10881H9.08049H9.05225H9.02409H8.99602H8.96803H8.94013H8.91232H8.8846H8.85696H8.82941H8.80196H8.7746H8.74732H8.72015H8.69306H8.66607H8.63917H8.61238H8.58567H8.55907H8.53256H8.50616H8.47985H8.45365H8.42755H8.40155H8.37565H8.34986H8.32417H8.29859H8.27312H8.24775H8.22249H8.19735H8.17231H8.14738H8.12257H8.09786H8.07328H8.0488H8.02444H8.0002H7.97607H7.95206H7.92817H7.9044H7.88074H7.85721H7.8338H7.81052H7.78735H7.76431H7.7414H7.71861H7.69595H7.67341H7.651H7.62872H7.60658H7.58456H7.56267H7.54092H7.5193H7.49781H7.47646H7.45524H7.43416H7.41322H7.39241H7.37175H7.35122H7.33083H7.31059H7.29048H7.27053H7.25071H7.23104H7.21151H7.19213H7.1729H7.15381H7.13488H7.11609H7.09745H7.07897H7.06064H7.04245H7.02443H7.00655H6.98884H6.97127H6.95387H6.93662H6.91954H6.90261H6.88584H6.86923H6.85278H6.8365H6.82038H6.80442H6.78863H6.77301H6.75755H6.74226H6.72714H6.71218H6.6974H6.68279H6.66835H6.65408H6.63998H6.62606H6.61231H6.59874H6.58535H6.57213H6.55909H6.54624H6.53356H6.52106H6.50874H6.4966H6.48465H6.47288H6.4613H6.4499H6.43869H6.42767H6.41683C6.13348 3.28466 5.98745 3.35262 5.91163 3.40317C5.82956 3.45789 5.76236 3.538 5.70709 3.64854C5.64986 3.76299 5.61627 3.88955 5.59854 3.99593C5.59007 4.04676 5.58622 4.08692 5.58454 4.11046L5.5835 4.12799V15.0347H12.8335C13.3858 15.0347 13.8335 15.4824 13.8335 16.0347V18.7747C13.8336 18.778 13.8339 18.7839 13.8345 18.7922C13.8362 18.8157 13.8401 18.8559 13.8485 18.9067C13.8663 19.0131 13.8999 19.1397 13.9571 19.2541C14.0124 19.3647 14.0796 19.4448 14.1616 19.4995C14.2375 19.55 14.3835 19.618 14.6668 19.618C14.9502 19.618 15.0962 19.55 15.172 19.4995C15.2541 19.4448 15.3213 19.3647 15.3766 19.2541C15.4338 19.1397 15.4674 19.0131 15.4851 18.9067C15.4936 18.8559 15.4974 18.8157 15.4991 18.7922C15.4997 18.7839 15.5 18.778 15.5002 18.7747V6.86799V4.11799H16.5002C15.5002 4.11799 15.5002 4.1175 15.5002 4.11699L15.5002 4.11595L15.5002 4.11372L15.5002 4.10873L15.5003 4.09661C15.5005 4.0876 15.5007 4.07672 15.5012 4.06409C15.502 4.03887 15.5035 4.0065 15.5063 3.96797C15.5118 3.89126 15.5222 3.78819 15.5424 3.66714C15.5607 3.55718 15.588 3.42696 15.629 3.28466ZM3.5835 15.0347V4.11799H4.5835C3.5835 4.11799 3.5835 4.1175 3.5835 4.11699L3.5835 4.11595L3.5835 4.11372L3.58353 4.10873L3.58368 4.09661C3.58383 4.0876 3.58408 4.07672 3.5845 4.06409C3.58534 4.03887 3.58687 4.0065 3.58962 3.96797C3.5951 3.89126 3.60557 3.78819 3.62575 3.66714C3.66531 3.42977 3.74629 3.09799 3.91824 2.75411C4.09213 2.40632 4.36869 2.0281 4.80223 1.73907C5.24204 1.44586 5.78351 1.28466 6.41683 1.28466H6.42767H6.43869H6.4499H6.4613H6.47288H6.48465H6.4966H6.50874H6.52106H6.53356H6.54624H6.55909H6.57213H6.58535H6.59874H6.61231H6.62606H6.63998H6.65408H6.66835H6.68279H6.6974H6.71218H6.72714H6.74226H6.75755H6.77301H6.78863H6.80442H6.82038H6.8365H6.85278H6.86923H6.88584H6.90261H6.91954H6.93662H6.95387H6.97127H6.98884H7.00655H7.02443H7.04245H7.06064H7.07897H7.09745H7.11609H7.13488H7.15381H7.1729H7.19213H7.21151H7.23104H7.25071H7.27053H7.29048H7.31059H7.33083H7.35122H7.37175H7.39241H7.41322H7.43416H7.45524H7.47646H7.49781H7.5193H7.54092H7.56267H7.58456H7.60658H7.62872H7.651H7.67341H7.69595H7.71861H7.7414H7.76431H7.78735H7.81052H7.8338H7.85721H7.88074H7.9044H7.92817H7.95206H7.97607H8.0002H8.02444H8.0488H8.07328H8.09786H8.12257H8.14738H8.17231H8.19735H8.22249H8.24775H8.27312H8.29859H8.32417H8.34986H8.37565H8.40155H8.42755H8.45365H8.47985H8.50616H8.53256H8.55907H8.58567H8.61238H8.63917H8.66607H8.69306H8.72015H8.74732H8.7746H8.80196H8.82941H8.85696H8.8846H8.91232H8.94013H8.96803H8.99602H9.02409H9.05225H9.08049H9.10881H9.13721H9.1657H9.19427H9.22292H9.25164H9.28045H9.30933H9.33829H9.36732H9.39643H9.42561H9.45487H9.4842H9.5136H9.54307H9.57261H9.60222H9.6319H9.66165H9.69146H9.72134H9.75128H9.78129H9.81137H9.8415H9.8717H9.90195H9.93227H9.96265H9.99308H10.0236H10.0541H10.0847H10.1154H10.1461H10.1769H10.2077H10.2386H10.2695H10.3005H10.3315H10.3626H10.3937H10.4249H10.4561H10.4873H10.5186H10.55H10.5814H10.6128H10.6443H10.6758H10.7074H10.739H10.7706H10.8023H10.834H10.8657H10.8975H10.9293H10.9611H10.993H11.0249H11.0568H11.0888H11.1208H11.1528H11.1849H11.217H11.2491H11.2812H11.3133H11.3455H11.3777H11.4099H11.4422H11.4744H11.5067H11.539H11.5713H11.6037H11.636H11.6684H11.7008H11.7332H11.7656H11.798H11.8304H11.8628H11.8953H11.9277H11.9602H11.9927H12.0251H12.0576H12.0901H12.1226H12.1551H12.1876H12.2201H12.2526H12.2851H12.3176H12.3501H12.3825H12.415H12.4475H12.48H12.5124H12.5449H12.5774H12.6098H12.6422H12.6747H12.7071H12.7395H12.7719H12.8042H12.8366H12.869H12.9013H12.9336H12.9659H12.9982H13.0304H13.0627H13.0949H13.1271H13.1592H13.1914H13.2235H13.2556H13.2877H13.3197H13.3518H13.3837H13.4157H13.4476H13.4795H13.5114H13.5432H13.575H13.6068H13.6385H13.6702H13.7019H13.7335H13.7651H13.7967H13.8282H13.8596H13.8911H13.9224H13.9538H13.9851H14.0163H14.0475H14.0787H14.1098H14.1409H14.1719H14.2028H14.2338H14.2646H14.2954H14.3262H14.3569H14.3876H14.4181H14.4487H14.4792H14.5096H14.54H14.5703H14.6005H14.6307H14.6608H14.6909H14.7209H14.7508H14.7807H14.8105H14.8402H14.8699H14.8995H14.929H14.9584H14.9878H15.0171H15.0464H15.0756H15.1046H15.1337H15.1626H15.1915H15.2203H15.249H15.2776H15.3062H15.3346H15.363H15.3913H15.4195H15.4477H15.4757H15.5037H15.5316H15.5594H15.5871H15.6147H15.6422H15.6697H15.697H15.7243H15.7514H15.7785H15.8055H15.8323H15.8591H15.8858H15.9124H15.9389H15.9653H15.9916H16.0177H16.0438H16.0698H16.0957H16.1214H16.1471H16.1727H16.1981H16.2235H16.2487H16.2738H16.2988H16.3237H16.3485H16.3732H16.3978H16.4222H16.4466H16.4708H16.4949H16.5189H16.5428H16.5665H16.5901H16.6136H16.637H16.6603H16.6834H16.7064H16.7293H16.7521H16.7747H16.7972H16.8196H16.8419H16.864H16.886H16.9078H16.9296H16.9512H16.9726H16.994H17.0151H17.0362H17.0571H17.0779H17.0985H17.119H17.1394H17.1596H17.1797H17.1996H17.2194H17.239H17.2585H17.2779H17.2971H17.3161H17.3351H17.3538H17.3724H17.3909H17.4092H17.4273H17.4453H17.4632H17.4808H17.4984H17.5158H17.533H17.55H17.5669H17.5837H17.6002H17.6166H17.6329H17.649H17.6649H17.6807H17.6963H17.7117H17.7269H17.742H17.7569H17.7717H17.7863H17.8007H17.8149H17.829H17.8429H17.8566H17.8701H17.8835H17.8966H17.9096H17.9225H17.9351H17.9476H17.9599H17.972H17.9839H17.9956H18.0072H18.0185H18.0297H18.0407H18.0515H18.0621H18.0725H18.0827H18.0928H18.1026H18.1123H18.1217H18.131H18.1401H18.1489H18.1576H18.1661H18.1744H18.1824H18.1903H18.198H18.2055H18.2127H18.2198H18.2267H18.2333H18.2398H18.246H18.2521H18.2579H18.2635H18.2689H18.2741H18.2791H18.2839H18.2884H18.2928H18.2969H18.3008H18.3045H18.308H18.3113H18.3143H18.3171H18.3197H18.3221H18.3242H18.3262H18.3279H18.3294H18.3306H18.3317H18.3325H18.333H18.3334C18.3334 1.28466 18.3335 1.28466 18.3335 1.28466C18.9668 1.28466 19.5083 1.44586 19.9481 1.73907C20.3816 2.0281 20.6582 2.40632 20.8321 2.75411C21.004 3.09799 21.085 3.42977 21.1246 3.66714C21.1448 3.78819 21.1552 3.89126 21.1607 3.96797C21.1635 4.0065 21.165 4.03887 21.1658 4.06409C21.1662 4.07672 21.1665 4.0876 21.1666 4.09661L21.1668 4.10873L21.1668 4.11372L21.1668 4.11595L21.1668 4.11699C21.1668 4.1175 21.1668 4.11799 20.1668 4.11799H21.1668V6.86799C21.1668 7.42028 20.7191 7.86799 20.1668 7.86799H17.5002V18.7847H16.5002C17.5002 18.7847 17.5002 18.7852 17.5002 18.7857V18.7867L17.5002 18.7889L17.5001 18.7939L17.5 18.806L17.4995 18.8259L17.4992 18.8386C17.4983 18.8638 17.4968 18.8962 17.494 18.9347C17.4886 19.0114 17.4781 19.1145 17.4579 19.2355C17.4184 19.4729 17.3374 19.8047 17.1654 20.1485C16.9915 20.4963 16.715 20.8746 16.2814 21.1636C15.8416 21.4568 15.3001 21.618 14.6668 21.618H14.656H14.6451H14.634H14.6229H14.6116H14.6001H14.5886H14.5769H14.5651H14.5532H14.5412H14.529H14.5167H14.5043H14.4918H14.4792H14.4664H14.4536H14.4406H14.4275H14.4142H14.4009H14.3875H14.3739H14.3602H14.3464H14.3325H14.3185H14.3044H14.2901H14.2758H14.2613H14.2467H14.2321H14.2173H14.2024H14.1874H14.1722H14.157H14.1417H14.1262H14.1107H14.0951H14.0793H14.0634H14.0475H14.0314H14.0152H13.999H13.9826H13.9661H13.9496H13.9329H13.9161H13.8992H13.8823H13.8652H13.848H13.8308H13.8134H13.7959H13.7784H13.7607H13.743H13.7252H13.7072H13.6892H13.6711H13.6529H13.6346H13.6162H13.5977H13.5791H13.5604H13.5417H13.5228H13.5039H13.4849H13.4658H13.4466H13.4273H13.4079H13.3885H13.3689H13.3493H13.3296H13.3098H13.2899H13.27H13.2499H13.2298H13.2096H13.1893H13.169H13.1485H13.128H13.1074H13.0867H13.066H13.0451H13.0242H13.0032H12.9822H12.961H12.9398H12.9185H12.8972H12.8758H12.8542H12.8327H12.811H12.7893H12.7675H12.7456H12.7237H12.7017H12.6796H12.6575H12.6353H12.613H12.5907H12.5683H12.5458H12.5233H12.5007H12.478H12.4552H12.4325H12.4096H12.3867H12.3637H12.3406H12.3175H12.2944H12.2712H12.2479H12.2245H12.2011H12.1777H12.1541H12.1306H12.1069H12.0832H12.0595H12.0357H12.0118H11.9879H11.964H11.94H11.9159H11.8918H11.8676H11.8434H11.8191H11.7948H11.7704H11.746H11.7215H11.697H11.6724H11.6478H11.6232H11.5985H11.5737H11.5489H11.5241H11.4992H11.4743H11.4493H11.4243H11.3992H11.3741H11.349H11.3238H11.2986H11.2733H11.248H11.2227H11.1973H11.1719H11.1464H11.1209H11.0954H11.0698H11.0442H11.0186H10.9929H10.9672H10.9415H10.9157H10.8899H10.8641H10.8382H10.8123H10.7864H10.7605H10.7345H10.7085H10.6824H10.6563H10.6302H10.6041H10.578H10.5518H10.5256H10.4994H10.4731H10.4468H10.4205H10.3942H10.3679H10.3415H10.3151H10.2887H10.2623H10.2358H10.2093H10.1828H10.1563H10.1298H10.1033H10.0767H10.0501H10.0235H9.99691H9.97028H9.94364H9.91698H9.89031H9.86363H9.83694H9.81023H9.78351H9.75678H9.73003H9.70328H9.67652H9.64975H9.62297H9.59618H9.56938H9.54258H9.51577H9.48895H9.46213H9.4353H9.40847H9.38163H9.35479H9.32794H9.3011H9.27425H9.24739H9.22054H9.19368H9.16683H9.13997H9.11312H9.08627H9.05941H9.03256H9.00571H8.97887H8.95203H8.92519H8.89836H8.87153H8.84471H8.81789H8.79108H8.76427H8.73748H8.71069H8.68391H8.65714H8.63038H8.60362H8.57688H8.55015H8.52343H8.49672H8.47003H8.44335H8.41668H8.39002H8.36338H8.33675H8.31014H8.28354H8.25696H8.2304H8.20386H8.17733H8.15082H8.12433H8.09786H8.0714H8.04497H8.01856H7.99217H7.9658H7.93946H7.91313H7.88683H7.86055H7.8343H7.80807H7.78187H7.75569H7.72954H7.70341H7.67732H7.65125H7.6252H7.59919H7.5732H7.54725H7.52132H7.49543H7.46956H7.44373H7.41793H7.39216H7.36643H7.34073H7.31506H7.28942H7.26383H7.23826H7.21274H7.18724H7.16179H7.13637H7.111H7.08566H7.06035H7.03509H7.00987H6.98469H6.95955H6.93445H6.90939H6.88437H6.8594H6.83447H6.80958H6.78474H6.75994H6.73519H6.71049H6.68583H6.66121H6.63665H6.61213H6.58766H6.56324H6.53887H6.51454H6.49027H6.46605H6.44188H6.41776H6.39369H6.36968H6.34572H6.32181H6.29796H6.27416H6.25042H6.22673H6.2031H6.17952H6.156H6.13254H6.10914H6.08579H6.06251H6.03928H6.01612H5.99301H5.96997H5.94698H5.92406H5.9012H5.87841H5.85568H5.83301H5.8104H5.78787H5.76539H5.74298H5.72064H5.69837H5.67616H5.65402H5.63195H5.60995H5.58802H5.56615H5.54436H5.52264H5.50099H5.47941H5.45791H5.43647H5.41511H5.39383H5.37261H5.35148H5.33041H5.30943H5.28852H5.26768H5.24693H5.22625H5.20565H5.18513H5.16468H5.14432H5.12404H5.10384H5.08371H5.06368H5.04372H5.02384H5.00405H4.98434H4.96472H4.94518H4.92573H4.90636H4.88707H4.86788H4.84877H4.82975H4.81081H4.79197H4.77321H4.75455H4.73597H4.71748H4.69909H4.68079H4.66257H4.64446H4.62643H4.6085H4.59066H4.57291H4.55526H4.53771H4.52025H4.50289H4.48562H4.46846H4.45139H4.43442H4.41754H4.40077H4.3841H4.36752H4.35105H4.33468H4.31841H4.30224H4.28618H4.27022H4.25436H4.23861H4.22296H4.20742H4.19198H4.17665H4.16142H4.14631H4.1313H4.1164H4.1016H4.08692H4.07235H4.05788H4.04353H4.02929H4.01516H4.00114H3.98724H3.97344H3.95976H3.9462H3.93275H3.91941H3.90619H3.89309H3.8801H3.86723H3.85448H3.84185H3.82933H3.81694H3.80466H3.7925H3.78046H3.76855H3.75675H3.74508H3.73353H3.7221H3.7108H3.69962H3.68857H3.67763H3.66683C3.03351 21.618 2.49204 21.4568 2.05223 21.1636C1.61869 20.8746 1.34213 20.4963 1.16824 20.1485C0.996295 19.8047 0.915309 19.4729 0.875748 19.2355C0.855572 19.1145 0.845098 19.0114 0.839618 18.9347C0.836866 18.8962 0.835339 18.8638 0.834499 18.8386C0.834078 18.8259 0.833827 18.8151 0.833682 18.806L0.833535 18.7939L0.833505 18.7889L0.833498 18.7867L0.833497 18.7857C0.833496 18.7852 0.833496 18.7847 1.8335 18.7847H0.833496V16.0347C0.833496 15.4824 1.28121 15.0347 1.8335 15.0347H3.5835ZM17.5002 5.86799V4.12798C17.5003 4.12466 17.5006 4.11872 17.5012 4.11046C17.5029 4.08692 17.5067 4.04676 17.5152 3.99593C17.5329 3.88955 17.5665 3.76299 17.6238 3.64854C17.679 3.538 17.7462 3.45789 17.8283 3.40317C17.9041 3.35262 18.0501 3.28466 18.3335 3.28466C18.6168 3.28466 18.7629 3.35262 18.8387 3.40317C18.9208 3.45789 18.988 3.538 19.0432 3.64854C19.1005 3.76299 19.1341 3.88955 19.1518 3.99593C19.1603 4.04676 19.1641 4.08692 19.1658 4.11046L19.1668 4.128V5.86799H17.5002ZM11.8757 19.2355C11.8941 19.3455 11.9213 19.4757 11.9623 19.618H11.94H11.9159H11.8918H11.8676H11.8434H11.8191H11.7948H11.7704H11.746H11.7215H11.697H11.6724H11.6478H11.6232H11.5985H11.5737H11.5489H11.5241H11.4992H11.4743H11.4493H11.4243H11.3992H11.3741H11.349H11.3238H11.2986H11.2733H11.248H11.2227H11.1973H11.1719H11.1464H11.1209H11.0954H11.0698H11.0442H11.0186H10.9929H10.9672H10.9415H10.9157H10.8899H10.8641H10.8382H10.8123H10.7864H10.7605H10.7345H10.7085H10.6824H10.6563H10.6302H10.6041H10.578H10.5518H10.5256H10.4994H10.4731H10.4468H10.4205H10.3942H10.3679H10.3415H10.3151H10.2887H10.2623H10.2358H10.2093H10.1828H10.1563H10.1298H10.1033H10.0767H10.0501H10.0235H9.99691H9.97028H9.94364H9.91698H9.89031H9.86363H9.83694H9.81023H9.78351H9.75678H9.73003H9.70328H9.67652H9.64975H9.62297H9.59618H9.56938H9.54258H9.51577H9.48895H9.46213H9.4353H9.40847H9.38163H9.35479H9.32794H9.3011H9.27425H9.24739H9.22054H9.19368H9.16683H9.13997H9.11312H9.08627H9.05941H9.03256H9.00571H8.97887H8.95203H8.92519H8.89836H8.87153H8.84471H8.81789H8.79108H8.76427H8.73748H8.71069H8.68391H8.65714H8.63038H8.60362H8.57688H8.55015H8.52343H8.49672H8.47003H8.44335H8.41668H8.39002H8.36338H8.33675H8.31014H8.28354H8.25696H8.2304H8.20386H8.17733H8.15082H8.12433H8.09786H8.0714H8.04497H8.01856H7.99217H7.9658H7.93946H7.91313H7.88683H7.86055H7.8343H7.80807H7.78187H7.75569H7.72954H7.70341H7.67732H7.65125H7.6252H7.59919H7.5732H7.54725H7.52132H7.49543H7.46956H7.44373H7.41793H7.39216H7.36643H7.34073H7.31506H7.28942H7.26383H7.23826H7.21274H7.18724H7.16179H7.13637H7.111H7.08566H7.06035H7.03509H7.00987H6.98469H6.95955H6.93445H6.90939H6.88437H6.8594H6.83447H6.80958H6.78474H6.75994H6.73519H6.71049H6.68583H6.66121H6.63665H6.61213H6.58766H6.56324H6.53887H6.51454H6.49027H6.46605H6.44188H6.41776H6.39369H6.36968H6.34572H6.32181H6.29796H6.27416H6.25042H6.22673H6.2031H6.17952H6.156H6.13254H6.10914H6.08579H6.06251H6.03928H6.01612H5.99301H5.96997H5.94698H5.92406H5.9012H5.87841H5.85568H5.83301H5.8104H5.78787H5.76539H5.74298H5.72064H5.69837H5.67616H5.65402H5.63195H5.60995H5.58802H5.56615H5.54436H5.52264H5.50099H5.47941H5.45791H5.43647H5.41511H5.39383H5.37261H5.35148H5.33041H5.30943H5.28852H5.26768H5.24693H5.22625H5.20565H5.18513H5.16468H5.14432H5.12404H5.10384H5.08371H5.06368H5.04372H5.02384H5.00405H4.98434H4.96472H4.94518H4.92573H4.90636H4.88707H4.86788H4.84877H4.82975H4.81081H4.79197H4.77321H4.75455H4.73597H4.71748H4.69909H4.68079H4.66257H4.64446H4.62643H4.6085H4.59066H4.57291H4.55526H4.53771H4.52025H4.50289H4.48562H4.46846H4.45139H4.43442H4.41754H4.40077H4.3841H4.36752H4.35105H4.33468H4.31841H4.30224H4.28618H4.27022H4.25436H4.23861H4.22296H4.20742H4.19198H4.17665H4.16142H4.14631H4.1313H4.1164H4.1016H4.08692H4.07235H4.05788H4.04353H4.02929H4.01516H4.00114H3.98724H3.97344H3.95976H3.9462H3.93275H3.91941H3.90619H3.89309H3.8801H3.86723H3.85448H3.84185H3.82933H3.81694H3.80466H3.7925H3.78046H3.76855H3.75675H3.74508H3.73353H3.7221H3.7108H3.69962H3.68857H3.67763H3.66683C3.38348 19.618 3.23745 19.55 3.16163 19.4995C3.07956 19.4448 3.01236 19.3647 2.95709 19.2541C2.89986 19.1397 2.86627 19.0131 2.84854 18.9067C2.84007 18.8559 2.83622 18.8157 2.83454 18.7922L2.8335 18.7747V17.0347H4.5835H11.8335V18.7847H12.8335C11.8335 18.7847 11.8335 18.7852 11.8335 18.7857L11.8335 18.7867L11.8335 18.7889L11.8335 18.7939L11.8337 18.806C11.8338 18.8151 11.8341 18.8259 11.8345 18.8386C11.8353 18.8638 11.8369 18.8962 11.8396 18.9347C11.8451 19.0114 11.8556 19.1145 11.8757 19.2355Z" fill="currentColor"/>
<path d="M8.25 7.78465H12.8333" stroke="currentColor" stroke-width="2" stroke-linecap="round" stroke-linejoin="round"/>
<path d="M8.25 11.4513H12.8333" stroke="currentColor" stroke-width="2" stroke-linecap="round" stroke-linejoin="round"/>
</svg>
