<svg width="24" height="25" viewBox="0 0 24 25" fill="none" xmlns="http://www.w3.org/2000/svg">
<path fill-rule="evenodd" clip-rule="evenodd" d="M20.8783 3.18958C18.7294 1.04064 15.2452 1.04064 13.0963 3.18958L9.5646 6.72129C9.32163 6.96425 9.51863 7.34598 9.86191 7.33125L11.4185 7.26448C11.7083 7.25204 11.983 7.13131 12.1882 6.92615L14.5105 4.6038C15.8784 3.23591 18.0962 3.23591 19.4641 4.6038C20.832 5.97169 20.832 8.18948 19.4641 9.55737L15.9324 13.0891C14.5645 14.457 12.3467 14.457 10.9788 13.0891C10.9446 13.0549 10.9113 13.0202 10.8788 12.985C10.6089 12.6922 10.2423 12.4848 9.84439 12.5019C9.08916 12.5343 8.59484 13.3035 9.04832 13.9083C9.20385 14.1157 9.37594 14.3146 9.5646 14.5033C11.7135 16.6522 15.1977 16.6522 17.3466 14.5033L20.8783 10.9716C23.0272 8.82265 23.0272 5.33852 20.8783 3.18958Z" fill="currentColor"/>
<path fill-rule="evenodd" clip-rule="evenodd" d="M13.3848 12.0347C14.1863 12.0074 14.6915 11.1751 14.1666 10.5688C14.0785 10.467 13.9861 10.3677 13.8894 10.271C11.709 8.09058 8.17382 8.09059 5.99339 10.271L2.57571 13.6887C0.395283 15.8691 0.395283 19.4043 2.57571 21.5847C4.75614 23.7651 8.29131 23.7651 10.4717 21.5847L13.8894 18.167C14.0655 17.9909 13.9273 17.7083 13.6784 17.7168L11.8772 17.7781C11.593 17.7878 11.323 17.905 11.1219 18.1061L9.05752 20.1705C7.65814 21.5699 5.3893 21.5699 3.98992 20.1705C2.59055 18.7711 2.59055 16.5023 3.98992 15.1029L7.40761 11.6852C8.80698 10.2858 11.0758 10.2858 12.4752 11.6852C12.6929 11.9029 12.9807 12.0485 13.2884 12.038L13.3848 12.0347Z" fill="currentColor"/>
</svg>
