<svg width="26" height="23" xmlns="http://www.w3.org/2000/svg" fill="none">

 <g>
  <title>Layer 1</title>
  <path stroke="#F8F8F8" id="svg_1" stroke-width="2" d="m19.66956,9.14819c0,-1.5643 -0.6895,-3.06452 -1.91679,-4.17064c-1.22738,-1.10613 -2.89206,-1.72754 -4.62777,-1.72754c-1.73572,0 -3.40037,0.62141 -4.62773,1.72754c-1.22735,1.10612 -1.91686,2.60635 -1.91686,4.17064c0,4.98957 -2.18973,7.39493 -3.39362,8.3403c-0.18077,0.14194 -0.06309,0.50695 0.17224,0.50695l5.76973,0c0.10438,0 0.19508,0.0666 0.22585,0.16052c0.19982,0.61029 1.09186,2.75204 3.77039,2.75204c2.67849,0 3.57058,-2.14175 3.7704,-2.75204c0.03079,-0.09392 0.12146,-0.16052 0.22588,-0.16052l5.76965,0c0.23534,0 0.35305,-0.36502 0.17224,-0.50695c-1.20382,-0.94538 -3.39361,-3.35073 -3.39361,-8.3403z"/>
 </g>
</svg>