<svg width="16" height="19" viewBox="0 0 16 19" fill="none" xmlns="http://www.w3.org/2000/svg">
<path d="M8.39827 0.462531C9.37698 0.447388 10.3501 0.456362 11.3221 0.447388C11.381 1.59212 11.7926 2.75817 12.6306 3.5675C13.4668 4.39703 14.6497 4.77674 15.8006 4.90518V7.91648C14.7221 7.88115 13.6385 7.6568 12.6597 7.1924C12.2335 6.99946 11.8364 6.751 11.4477 6.49692C11.4427 8.68207 11.4567 10.8644 11.4337 13.0406C11.3754 14.086 11.0304 15.1265 10.4224 15.9879C9.44429 17.4221 7.74654 18.3571 6.0028 18.3862C4.93322 18.4474 3.86476 18.1557 2.95335 17.6184C1.44293 16.7277 0.380083 15.0973 0.225283 13.3474C0.205784 12.9768 0.20279 12.6055 0.216309 12.2346C0.350918 10.8117 1.05481 9.45046 2.14738 8.52446C3.38578 7.44591 5.12055 6.93216 6.74483 7.23615C6.75997 8.34386 6.71566 9.45046 6.71566 10.5582C5.97363 10.3181 5.10653 10.3854 4.45816 10.8358C3.9838 11.1483 3.62533 11.6081 3.43794 12.1443C3.28314 12.5235 3.32745 12.9447 3.33642 13.3474C3.51422 14.5746 4.69429 15.606 5.954 15.4944C6.78913 15.4854 7.58949 15.0008 8.02473 14.2913C8.16551 14.0429 8.32311 13.7888 8.33152 13.4966C8.405 12.1589 8.37583 10.8268 8.38481 9.48916C8.39098 6.47449 8.37583 3.46823 8.39883 0.463092L8.39827 0.462531Z" fill="currentColor"/>
</svg>
