<svg width="21" height="17" viewBox="0 0 21 17" fill="none" xmlns="http://www.w3.org/2000/svg">
<path d="M20.6876 2.54481C19.9569 2.85315 19.1721 3.06148 18.347 3.15565C19.1983 2.67047 19.8353 1.90687 20.139 1.00731C19.3391 1.4598 18.4636 1.77831 17.5507 1.94898C16.9368 1.3247 16.1236 0.910919 15.2375 0.771875C14.3513 0.632832 13.4418 0.776306 12.65 1.18002C11.8583 1.58374 11.2286 2.22512 10.8588 3.00457C10.489 3.78402 10.3998 4.65794 10.6049 5.49065C8.98418 5.41314 7.39862 5.01194 5.9512 4.31307C4.50377 3.6142 3.22681 2.63328 2.2032 1.43398C1.8532 2.00898 1.65195 2.67565 1.65195 3.38565C1.65156 4.02481 1.81683 4.65418 2.13309 5.21792C2.44936 5.78167 2.90684 6.26235 3.46495 6.61731C2.81769 6.5977 2.18471 6.43113 1.6187 6.13148V6.18148C1.61863 7.07793 1.94423 7.9468 2.54023 8.64064C3.13624 9.33449 3.96595 9.81059 4.88857 9.98815C4.28814 10.1429 3.65862 10.1657 3.04757 10.0548C3.30788 10.8262 3.81495 11.5007 4.49777 11.9839C5.1806 12.4672 6.005 12.735 6.85557 12.7498C5.41168 13.8293 3.62848 14.4149 1.79282 14.4123C1.46766 14.4124 1.14277 14.3943 0.819824 14.3581C2.68312 15.4991 4.85212 16.1047 7.06732 16.1023C14.5661 16.1023 18.6655 10.1873 18.6655 5.05731C18.6655 4.89065 18.6611 4.72231 18.6532 4.55565C19.4506 4.00646 20.1389 3.32639 20.6858 2.54731L20.6876 2.54481Z" fill="currentColor"/>
</svg>
