<svg width="22" height="14" viewBox="0 0 22 14" fill="none" xmlns="http://www.w3.org/2000/svg">
<path d="M20.7624 2.51445C20.647 2.10294 20.4223 1.73037 20.1121 1.43636C19.7932 1.13331 19.4023 0.916536 18.9763 0.806489C17.3821 0.38629 10.9951 0.38629 10.9951 0.38629C8.3324 0.355995 5.67037 0.489238 3.02402 0.785267C2.59804 0.903444 2.20787 1.12507 1.8882 1.43042C1.57412 1.73263 1.34661 2.10529 1.22777 2.5136C0.942283 4.05157 0.803573 5.61319 0.813512 7.1774C0.803326 8.7402 0.941694 10.3013 1.22777 11.8412C1.34407 12.2478 1.57072 12.6188 1.88566 12.9184C2.2006 13.2181 2.59278 13.4346 3.02402 13.5492C4.63945 13.9685 10.9951 13.9685 10.9951 13.9685C13.6612 13.9988 16.3266 13.8656 18.9763 13.5695C19.4023 13.4595 19.7932 13.2427 20.1121 12.9397C20.4262 12.64 20.6495 12.2673 20.7615 11.8616C21.0545 10.3242 21.1969 8.76193 21.1868 7.19692C21.2089 5.62529 21.0666 4.05566 20.7624 2.5136V2.51445ZM8.96454 10.084V4.27165L14.2786 7.17825L8.96454 10.084Z" fill="currentColor"/>
</svg>
